%TF.GenerationSoftware,KiCad,Pcbnew,10.0.6*%
%TF.CreationDate,2026-10-06T15:45:22-04:00*%
%TF.ProjectId,555_Timer_PCB,3535355f-5469-46d6-9572-5f5043422e6b,rev?*%
%TF.SameCoordinates,Original*%
%TF.FileFunction,Copper,L1,Top*%
%TF.FilePolarity,Positive*%
%FSLAX46Y46*%
G04 Gerber Fmt 4.6, Leading zero omitted, Abs format (unit mm)*
G04 Created by KiCad (PCBNEW 10.0.6) date 2026-10-06 15:45:22*
%MOMM*%
%LPD*%
G01*
G04 APERTURE LIST*
G04 Aperture macros list*
%AMRoundRect*
0 Rectangle with rounded corners*
0 $1 Rounding radius*
0 $2 $3 $4 $5 $6 $7 $8 $9 X,Y pos of 4 corners*
0 Add a 4 corners polygon primitive as box body*
4,1,4,$2,$3,$4,$5,$6,$7,$8,$9,$2,$3,0*
0 Add four circle primitives for the rounded corners*
1,1,$1+$1,$2,$3*
1,1,$1+$1,$4,$5*
1,1,$1+$1,$6,$7*
1,1,$1+$1,$8,$9*
0 Add four rect primitives between the rounded corners*
20,1,$1+$1,$2,$3,$4,$5,0*
20,1,$1+$1,$4,$5,$6,$7,0*
20,1,$1+$1,$6,$7,$8,$9,0*
20,1,$1+$1,$8,$9,$2,$3,0*%
G04 Aperture macros list end*
%TA.AperFunction,ComponentPad*%
%ADD10R,1.800000X1.800000*%
%TD*%
%TA.AperFunction,ComponentPad*%
%ADD11C,1.800000*%
%TD*%
%TA.AperFunction,ComponentPad*%
%ADD12C,1.600000*%
%TD*%
%TA.AperFunction,ComponentPad*%
%ADD13RoundRect,0.250000X-0.550000X-0.550000X0.550000X-0.550000X0.550000X0.550000X-0.550000X0.550000X0*%
%TD*%
%TA.AperFunction,ComponentPad*%
%ADD14R,1.700000X1.700000*%
%TD*%
%TA.AperFunction,ComponentPad*%
%ADD15C,1.700000*%
%TD*%
%TA.AperFunction,Conductor*%
%ADD16C,0.300000*%
%TD*%
%TA.AperFunction,Conductor*%
%ADD17C,0.500000*%
%TD*%
G04 APERTURE END LIST*
D10*
%TO.P,D1,1,K_1*%
%TO.N,GND*%
X172225000Y-123500000D03*
D11*
%TO.P,D1,2,A_2*%
%TO.N,Net-(D1-A)*%
X174765000Y-123500000D03*
%TD*%
D12*
%TO.P,C3,1*%
%TO.N,GND*%
X197685000Y-114810000D03*
%TO.P,C3,2*%
%TO.N,+5V*%
X202685000Y-114810000D03*
%TD*%
%TO.P,R3,1*%
%TO.N,Net-(D1-A)*%
X178340000Y-123500000D03*
%TO.P,R3,2*%
%TO.N,Net-(U1-OUT)*%
X188500000Y-123500000D03*
%TD*%
D13*
%TO.P,C1,1*%
%TO.N,Net-(U1-THRES)*%
X204000000Y-130000000D03*
D12*
%TO.P,C1,2*%
%TO.N,GND*%
X206000000Y-130000000D03*
%TD*%
%TO.P,R1,1*%
%TO.N,Net-(U1-DISCH)*%
X201920000Y-121000000D03*
%TO.P,R1,2*%
%TO.N,+5V*%
X212080000Y-121000000D03*
%TD*%
D13*
%TO.P,U1,1,GND_1*%
%TO.N,GND*%
X191380000Y-118500000D03*
D12*
%TO.P,U1,2,TRIG_2*%
%TO.N,Net-(U1-THRES)*%
X191380000Y-121040000D03*
%TO.P,U1,3,OUT_3*%
%TO.N,Net-(U1-OUT)*%
X191380000Y-123580000D03*
%TO.P,U1,4,~{RST}_4*%
%TO.N,+5V*%
X191380000Y-126120000D03*
%TO.P,U1,5,CONT_5*%
%TO.N,Net-(U1-CONT)*%
X199000000Y-126120000D03*
%TO.P,U1,6,THRES_6*%
%TO.N,Net-(U1-THRES)*%
X199000000Y-123580000D03*
%TO.P,U1,7,DISCH_7*%
%TO.N,Net-(U1-DISCH)*%
X199000000Y-121040000D03*
%TO.P,U1,8,VCC_8*%
%TO.N,+5V*%
X199000000Y-118500000D03*
%TD*%
%TO.P,R2,1*%
%TO.N,Net-(U1-DISCH)*%
X201840000Y-124500000D03*
%TO.P,R2,2*%
%TO.N,Net-(U1-THRES)*%
X212000000Y-124500000D03*
%TD*%
%TO.P,C2,1*%
%TO.N,GND*%
X195000000Y-130500000D03*
%TO.P,C2,2*%
%TO.N,Net-(U1-CONT)*%
X200000000Y-130500000D03*
%TD*%
D14*
%TO.P,J1,1,Pin_1_1*%
%TO.N,+5V*%
X174000000Y-106725000D03*
D15*
%TO.P,J1,2,Pin_2_2*%
%TO.N,GND*%
X174000000Y-109265000D03*
%TD*%
%TO.N,Net-(D1-A)*%
D16*
X178340000Y-123500000D02*
X174765000Y-123500000D01*
%TO.N,+5V*%
D17*
X199000000Y-118495000D02*
X199000000Y-118500000D01*
X194600000Y-106725000D02*
X202685000Y-114810000D01*
X191380000Y-126120000D02*
X191500000Y-126240000D01*
X174000000Y-106725000D02*
X194600000Y-106725000D01*
X212000000Y-118500000D02*
X199000000Y-118500000D01*
X202685000Y-114810000D02*
X199000000Y-118495000D01*
X212080000Y-121000000D02*
X212080000Y-118580000D01*
X212080000Y-118580000D02*
X212000000Y-118500000D01*
%TO.N,Net-(U1-OUT)*%
D16*
X191380000Y-123580000D02*
X188580000Y-123580000D01*
X188580000Y-123580000D02*
X188500000Y-123500000D01*
%TO.N,Net-(U1-THRES)*%
X212000000Y-124500000D02*
X212000000Y-126500000D01*
X212000000Y-126500000D02*
X201920000Y-126500000D01*
X199000000Y-123580000D02*
X198580000Y-123580000D01*
X204000000Y-128580000D02*
X201920000Y-126500000D01*
X198580000Y-123580000D02*
X196040000Y-121040000D01*
X196040000Y-121040000D02*
X191380000Y-121040000D01*
X201920000Y-126500000D02*
X199000000Y-123580000D01*
X204000000Y-130000000D02*
X204000000Y-128580000D01*
%TO.N,Net-(U1-DISCH)*%
X201840000Y-124500000D02*
X201840000Y-121080000D01*
X199000000Y-121040000D02*
X201880000Y-121040000D01*
X201880000Y-121040000D02*
X201920000Y-121000000D01*
X201840000Y-121080000D02*
X201920000Y-121000000D01*
%TO.N,Net-(U1-CONT)*%
X199000000Y-126120000D02*
X199000000Y-129500000D01*
X199000000Y-129500000D02*
X200000000Y-130500000D01*
%TD*%
%TA.AperFunction,Conductor*%
%TO.N,GND*%
G36*
X217441432Y-101520185D02*
G01*
X217487187Y-101572989D01*
X217498383Y-101626090D01*
X217001575Y-140377090D01*
X216981032Y-140443871D01*
X216927646Y-140488945D01*
X216877585Y-140499500D01*
X168624500Y-140499500D01*
X168557461Y-140479815D01*
X168511706Y-140427011D01*
X168500500Y-140375500D01*
X168500500Y-130397682D01*
X193700000Y-130397682D01*
X193700000Y-130602317D01*
X193732009Y-130804417D01*
X193795244Y-130999031D01*
X193888141Y-131181350D01*
X193888147Y-131181359D01*
X193920523Y-131225921D01*
X193920524Y-131225922D01*
X194600000Y-130546446D01*
X194600000Y-130552661D01*
X194627259Y-130654394D01*
X194679920Y-130745606D01*
X194754394Y-130820080D01*
X194845606Y-130872741D01*
X194947339Y-130900000D01*
X194953553Y-130900000D01*
X194274076Y-131579474D01*
X194318650Y-131611859D01*
X194500968Y-131704755D01*
X194695582Y-131767990D01*
X194897683Y-131800000D01*
X195102317Y-131800000D01*
X195304417Y-131767990D01*
X195499031Y-131704755D01*
X195681349Y-131611859D01*
X195725921Y-131579474D01*
X195046447Y-130900000D01*
X195052661Y-130900000D01*
X195154394Y-130872741D01*
X195245606Y-130820080D01*
X195320080Y-130745606D01*
X195372741Y-130654394D01*
X195400000Y-130552661D01*
X195400000Y-130546447D01*
X196079474Y-131225921D01*
X196111859Y-131181349D01*
X196204755Y-130999031D01*
X196267990Y-130804417D01*
X196300000Y-130602317D01*
X196300000Y-130397682D01*
X196267990Y-130195582D01*
X196204755Y-130000968D01*
X196111859Y-129818650D01*
X196079474Y-129774077D01*
X196079474Y-129774076D01*
X195400000Y-130453551D01*
X195400000Y-130447339D01*
X195372741Y-130345606D01*
X195320080Y-130254394D01*
X195245606Y-130179920D01*
X195154394Y-130127259D01*
X195052661Y-130100000D01*
X195046446Y-130100000D01*
X195725922Y-129420524D01*
X195725921Y-129420523D01*
X195681359Y-129388147D01*
X195681350Y-129388141D01*
X195499031Y-129295244D01*
X195304417Y-129232009D01*
X195102317Y-129200000D01*
X194897683Y-129200000D01*
X194695582Y-129232009D01*
X194500968Y-129295244D01*
X194318644Y-129388143D01*
X194274077Y-129420523D01*
X194274077Y-129420524D01*
X194953554Y-130100000D01*
X194947339Y-130100000D01*
X194845606Y-130127259D01*
X194754394Y-130179920D01*
X194679920Y-130254394D01*
X194627259Y-130345606D01*
X194600000Y-130447339D01*
X194600000Y-130453553D01*
X193920524Y-129774077D01*
X193920523Y-129774077D01*
X193888143Y-129818644D01*
X193795244Y-130000968D01*
X193732009Y-130195582D01*
X193700000Y-130397682D01*
X168500500Y-130397682D01*
X168500500Y-126033389D01*
X190279500Y-126033389D01*
X190279500Y-126206611D01*
X190306598Y-126377701D01*
X190360127Y-126542445D01*
X190438768Y-126696788D01*
X190540586Y-126836928D01*
X190663072Y-126959414D01*
X190803212Y-127061232D01*
X190957555Y-127139873D01*
X191122299Y-127193402D01*
X191293389Y-127220500D01*
X191293390Y-127220500D01*
X191466610Y-127220500D01*
X191466611Y-127220500D01*
X191637701Y-127193402D01*
X191802445Y-127139873D01*
X191956788Y-127061232D01*
X192096928Y-126959414D01*
X192219414Y-126836928D01*
X192321232Y-126696788D01*
X192399873Y-126542445D01*
X192453402Y-126377701D01*
X192480500Y-126206611D01*
X192480500Y-126033389D01*
X197899500Y-126033389D01*
X197899500Y-126206611D01*
X197926598Y-126377701D01*
X197980127Y-126542445D01*
X198058768Y-126696788D01*
X198160586Y-126836928D01*
X198283072Y-126959414D01*
X198362186Y-127016894D01*
X198423207Y-127061229D01*
X198423211Y-127061231D01*
X198423212Y-127061232D01*
X198481795Y-127091081D01*
X198532590Y-127139053D01*
X198549500Y-127201565D01*
X198549500Y-129559308D01*
X198573712Y-129649672D01*
X198580200Y-129673885D01*
X198580200Y-129673886D01*
X198580201Y-129673887D01*
X198639511Y-129776614D01*
X198639513Y-129776616D01*
X198916665Y-130053768D01*
X198950150Y-130115091D01*
X198946915Y-130179767D01*
X198926598Y-130242294D01*
X198926598Y-130242297D01*
X198899500Y-130413389D01*
X198899500Y-130586610D01*
X198921564Y-130725921D01*
X198926598Y-130757701D01*
X198980127Y-130922445D01*
X199058768Y-131076788D01*
X199160586Y-131216928D01*
X199283072Y-131339414D01*
X199423212Y-131441232D01*
X199577555Y-131519873D01*
X199742299Y-131573402D01*
X199913389Y-131600500D01*
X199913390Y-131600500D01*
X200086610Y-131600500D01*
X200086611Y-131600500D01*
X200257701Y-131573402D01*
X200422445Y-131519873D01*
X200576788Y-131441232D01*
X200716928Y-131339414D01*
X200839414Y-131216928D01*
X200941232Y-131076788D01*
X201019873Y-130922445D01*
X201073402Y-130757701D01*
X201100500Y-130586611D01*
X201100500Y-130413389D01*
X201073402Y-130242299D01*
X201019873Y-130077555D01*
X200941232Y-129923212D01*
X200839414Y-129783072D01*
X200716928Y-129660586D01*
X200576788Y-129558768D01*
X200422445Y-129480127D01*
X200257701Y-129426598D01*
X200257699Y-129426597D01*
X200257698Y-129426597D01*
X200126271Y-129405781D01*
X200086611Y-129399500D01*
X199913389Y-129399500D01*
X199856359Y-129408532D01*
X199742297Y-129426598D01*
X199742294Y-129426598D01*
X199679767Y-129446915D01*
X199609926Y-129448910D01*
X199553768Y-129416665D01*
X199486819Y-129349716D01*
X199453334Y-129288393D01*
X199450500Y-129262035D01*
X199450500Y-127201565D01*
X199470185Y-127134526D01*
X199518204Y-127091081D01*
X199576788Y-127061232D01*
X199716928Y-126959414D01*
X199839414Y-126836928D01*
X199941232Y-126696788D01*
X200019873Y-126542445D01*
X200073402Y-126377701D01*
X200100500Y-126206611D01*
X200100500Y-126033389D01*
X200073402Y-125862299D01*
X200019873Y-125697555D01*
X199941232Y-125543212D01*
X199839414Y-125403072D01*
X199716928Y-125280586D01*
X199576788Y-125178768D01*
X199422445Y-125100127D01*
X199257701Y-125046598D01*
X199257699Y-125046597D01*
X199257698Y-125046597D01*
X199126271Y-125025781D01*
X199086611Y-125019500D01*
X198913389Y-125019500D01*
X198873728Y-125025781D01*
X198742302Y-125046597D01*
X198577552Y-125100128D01*
X198423211Y-125178768D01*
X198343256Y-125236859D01*
X198283072Y-125280586D01*
X198283070Y-125280588D01*
X198283069Y-125280588D01*
X198160588Y-125403069D01*
X198160588Y-125403070D01*
X198160586Y-125403072D01*
X198116859Y-125463256D01*
X198058768Y-125543211D01*
X197980128Y-125697552D01*
X197926597Y-125862302D01*
X197916588Y-125925500D01*
X197899500Y-126033389D01*
X192480500Y-126033389D01*
X192453402Y-125862299D01*
X192399873Y-125697555D01*
X192321232Y-125543212D01*
X192219414Y-125403072D01*
X192096928Y-125280586D01*
X191956788Y-125178768D01*
X191802445Y-125100127D01*
X191637701Y-125046598D01*
X191637699Y-125046597D01*
X191637698Y-125046597D01*
X191506271Y-125025781D01*
X191466611Y-125019500D01*
X191293389Y-125019500D01*
X191253728Y-125025781D01*
X191122302Y-125046597D01*
X190957552Y-125100128D01*
X190803211Y-125178768D01*
X190723256Y-125236859D01*
X190663072Y-125280586D01*
X190663070Y-125280588D01*
X190663069Y-125280588D01*
X190540588Y-125403069D01*
X190540588Y-125403070D01*
X190540586Y-125403072D01*
X190496859Y-125463256D01*
X190438768Y-125543211D01*
X190360128Y-125697552D01*
X190306597Y-125862302D01*
X190296588Y-125925500D01*
X190279500Y-126033389D01*
X168500500Y-126033389D01*
X168500500Y-122552155D01*
X170825000Y-122552155D01*
X170825000Y-123250000D01*
X171849722Y-123250000D01*
X171805667Y-123326306D01*
X171775000Y-123440756D01*
X171775000Y-123559244D01*
X171805667Y-123673694D01*
X171849722Y-123750000D01*
X170825000Y-123750000D01*
X170825000Y-124447844D01*
X170831401Y-124507372D01*
X170831403Y-124507379D01*
X170881645Y-124642086D01*
X170881649Y-124642093D01*
X170967809Y-124757187D01*
X170967812Y-124757190D01*
X171082906Y-124843350D01*
X171082913Y-124843354D01*
X171217620Y-124893596D01*
X171217627Y-124893598D01*
X171277155Y-124899999D01*
X171277172Y-124900000D01*
X171975000Y-124900000D01*
X171975000Y-123875277D01*
X172051306Y-123919333D01*
X172165756Y-123950000D01*
X172284244Y-123950000D01*
X172398694Y-123919333D01*
X172475000Y-123875277D01*
X172475000Y-124900000D01*
X173172828Y-124900000D01*
X173172844Y-124899999D01*
X173232372Y-124893598D01*
X173232379Y-124893596D01*
X173367086Y-124843354D01*
X173367093Y-124843350D01*
X173482187Y-124757190D01*
X173482190Y-124757187D01*
X173568350Y-124642093D01*
X173568354Y-124642086D01*
X173618596Y-124507379D01*
X173618598Y-124507372D01*
X173624999Y-124447844D01*
X173625000Y-124447827D01*
X173625000Y-124354969D01*
X173644685Y-124287930D01*
X173697489Y-124242175D01*
X173766647Y-124232231D01*
X173830203Y-124261256D01*
X173846012Y-124278481D01*
X173846146Y-124278368D01*
X173849308Y-124282070D01*
X173849310Y-124282073D01*
X173982927Y-124415690D01*
X174135801Y-124526760D01*
X174215347Y-124567290D01*
X174304163Y-124612545D01*
X174304165Y-124612545D01*
X174304168Y-124612547D01*
X174361228Y-124631087D01*
X174483881Y-124670940D01*
X174670514Y-124700500D01*
X174670519Y-124700500D01*
X174859486Y-124700500D01*
X175046118Y-124670940D01*
X175069530Y-124663333D01*
X175225832Y-124612547D01*
X175394199Y-124526760D01*
X175547073Y-124415690D01*
X175680690Y-124282073D01*
X175791760Y-124129199D01*
X175848314Y-124018204D01*
X175896288Y-123967409D01*
X175958799Y-123950500D01*
X177258435Y-123950500D01*
X177325474Y-123970185D01*
X177368918Y-124018204D01*
X177385213Y-124050185D01*
X177398766Y-124076785D01*
X177398770Y-124076792D01*
X177414329Y-124098206D01*
X177500586Y-124216928D01*
X177623072Y-124339414D01*
X177763212Y-124441232D01*
X177917555Y-124519873D01*
X178082299Y-124573402D01*
X178253389Y-124600500D01*
X178253390Y-124600500D01*
X178426610Y-124600500D01*
X178426611Y-124600500D01*
X178597701Y-124573402D01*
X178762445Y-124519873D01*
X178916788Y-124441232D01*
X179056928Y-124339414D01*
X179179414Y-124216928D01*
X179281232Y-124076788D01*
X179359873Y-123922445D01*
X179413402Y-123757701D01*
X179440500Y-123586611D01*
X179440500Y-123413389D01*
X187399500Y-123413389D01*
X187399500Y-123586611D01*
X187407677Y-123638239D01*
X187413292Y-123673694D01*
X187426598Y-123757701D01*
X187480127Y-123922445D01*
X187558768Y-124076788D01*
X187660586Y-124216928D01*
X187783072Y-124339414D01*
X187923212Y-124441232D01*
X188077555Y-124519873D01*
X188242299Y-124573402D01*
X188413389Y-124600500D01*
X188413390Y-124600500D01*
X188586610Y-124600500D01*
X188586611Y-124600500D01*
X188757701Y-124573402D01*
X188922445Y-124519873D01*
X189076788Y-124441232D01*
X189216928Y-124339414D01*
X189339414Y-124216928D01*
X189437726Y-124081614D01*
X189493057Y-124038949D01*
X189538044Y-124030500D01*
X190298435Y-124030500D01*
X190365474Y-124050185D01*
X190408918Y-124098204D01*
X190424711Y-124129199D01*
X190438766Y-124156785D01*
X190438770Y-124156792D01*
X190481100Y-124215053D01*
X190540586Y-124296928D01*
X190663072Y-124419414D01*
X190803212Y-124521232D01*
X190957555Y-124599873D01*
X191122299Y-124653402D01*
X191293389Y-124680500D01*
X191293390Y-124680500D01*
X191466610Y-124680500D01*
X191466611Y-124680500D01*
X191637701Y-124653402D01*
X191802445Y-124599873D01*
X191956788Y-124521232D01*
X192096928Y-124419414D01*
X192219414Y-124296928D01*
X192321232Y-124156788D01*
X192399873Y-124002445D01*
X192453402Y-123837701D01*
X192480500Y-123666611D01*
X192480500Y-123493389D01*
X192453402Y-123322299D01*
X192399873Y-123157555D01*
X192321232Y-123003212D01*
X192219414Y-122863072D01*
X192096928Y-122740586D01*
X191956788Y-122638768D01*
X191802445Y-122560127D01*
X191637701Y-122506598D01*
X191637699Y-122506597D01*
X191637698Y-122506597D01*
X191506271Y-122485781D01*
X191466611Y-122479500D01*
X191293389Y-122479500D01*
X191253728Y-122485781D01*
X191122302Y-122506597D01*
X190957552Y-122560128D01*
X190803211Y-122638768D01*
X190755955Y-122673102D01*
X190663072Y-122740586D01*
X190663070Y-122740588D01*
X190663069Y-122740588D01*
X190540588Y-122863069D01*
X190540588Y-122863070D01*
X190540586Y-122863072D01*
X190534971Y-122870801D01*
X190438770Y-123003207D01*
X190438766Y-123003214D01*
X190425213Y-123029815D01*
X190408918Y-123061795D01*
X190360947Y-123112590D01*
X190298435Y-123129500D01*
X189622328Y-123129500D01*
X189555289Y-123109815D01*
X189511843Y-123061795D01*
X189471081Y-122981795D01*
X189441232Y-122923212D01*
X189339414Y-122783072D01*
X189216928Y-122660586D01*
X189076788Y-122558768D01*
X188922445Y-122480127D01*
X188757701Y-122426598D01*
X188757699Y-122426597D01*
X188757698Y-122426597D01*
X188626271Y-122405781D01*
X188586611Y-122399500D01*
X188413389Y-122399500D01*
X188373728Y-122405781D01*
X188242302Y-122426597D01*
X188077552Y-122480128D01*
X187923211Y-122558768D01*
X187843256Y-122616859D01*
X187783072Y-122660586D01*
X187783070Y-122660588D01*
X187783069Y-122660588D01*
X187660588Y-122783069D01*
X187660588Y-122783070D01*
X187660586Y-122783072D01*
X187616859Y-122843256D01*
X187558768Y-122923211D01*
X187480128Y-123077552D01*
X187426597Y-123242302D01*
X187401700Y-123399500D01*
X187399500Y-123413389D01*
X179440500Y-123413389D01*
X179413402Y-123242299D01*
X179359873Y-123077555D01*
X179281232Y-122923212D01*
X179179414Y-122783072D01*
X179056928Y-122660586D01*
X178916788Y-122558768D01*
X178762445Y-122480127D01*
X178597701Y-122426598D01*
X178597699Y-122426597D01*
X178597698Y-122426597D01*
X178466271Y-122405781D01*
X178426611Y-122399500D01*
X178253389Y-122399500D01*
X178213728Y-122405781D01*
X178082302Y-122426597D01*
X177917552Y-122480128D01*
X177763211Y-122558768D01*
X177683256Y-122616859D01*
X177623072Y-122660586D01*
X177623070Y-122660588D01*
X177623069Y-122660588D01*
X177500588Y-122783069D01*
X177500588Y-122783070D01*
X177500586Y-122783072D01*
X177475040Y-122818232D01*
X177398770Y-122923207D01*
X177398766Y-122923214D01*
X177380000Y-122960046D01*
X177368918Y-122981795D01*
X177320947Y-123032590D01*
X177258435Y-123049500D01*
X175958799Y-123049500D01*
X175891760Y-123029815D01*
X175848314Y-122981795D01*
X175791760Y-122870801D01*
X175680690Y-122717927D01*
X175547073Y-122584310D01*
X175394199Y-122473240D01*
X175225836Y-122387454D01*
X175046118Y-122329059D01*
X174859486Y-122299500D01*
X174859481Y-122299500D01*
X174670519Y-122299500D01*
X174670514Y-122299500D01*
X174483881Y-122329059D01*
X174304163Y-122387454D01*
X174135800Y-122473240D01*
X174048579Y-122536610D01*
X173982927Y-122584310D01*
X173982925Y-122584312D01*
X173982924Y-122584312D01*
X173849312Y-122717924D01*
X173846146Y-122721632D01*
X173845367Y-122720966D01*
X173793975Y-122760586D01*
X173724361Y-122766557D01*
X173662570Y-122733944D01*
X173628219Y-122673102D01*
X173625000Y-122645030D01*
X173625000Y-122552172D01*
X173624999Y-122552155D01*
X173618598Y-122492627D01*
X173618596Y-122492620D01*
X173568354Y-122357913D01*
X173568350Y-122357906D01*
X173482190Y-122242812D01*
X173482187Y-122242809D01*
X173367093Y-122156649D01*
X173367086Y-122156645D01*
X173232379Y-122106403D01*
X173232372Y-122106401D01*
X173172844Y-122100000D01*
X172475000Y-122100000D01*
X172475000Y-123124722D01*
X172398694Y-123080667D01*
X172284244Y-123050000D01*
X172165756Y-123050000D01*
X172051306Y-123080667D01*
X171975000Y-123124722D01*
X171975000Y-122100000D01*
X171277155Y-122100000D01*
X171217627Y-122106401D01*
X171217620Y-122106403D01*
X171082913Y-122156645D01*
X171082906Y-122156649D01*
X170967812Y-122242809D01*
X170967809Y-122242812D01*
X170881649Y-122357906D01*
X170881645Y-122357913D01*
X170831403Y-122492620D01*
X170831401Y-122492627D01*
X170825000Y-122552155D01*
X168500500Y-122552155D01*
X168500500Y-117900013D01*
X190080000Y-117900013D01*
X190080000Y-118250000D01*
X191064314Y-118250000D01*
X191059920Y-118254394D01*
X191007259Y-118345606D01*
X190980000Y-118447339D01*
X190980000Y-118552661D01*
X191007259Y-118654394D01*
X191059920Y-118745606D01*
X191064314Y-118750000D01*
X190080001Y-118750000D01*
X190080001Y-119099986D01*
X190090494Y-119202697D01*
X190145641Y-119369119D01*
X190145643Y-119369124D01*
X190237684Y-119518345D01*
X190361654Y-119642315D01*
X190510875Y-119734356D01*
X190510880Y-119734358D01*
X190677302Y-119789505D01*
X190677309Y-119789506D01*
X190780019Y-119799999D01*
X190873079Y-119799999D01*
X190940118Y-119819683D01*
X190985874Y-119872486D01*
X190995818Y-119941645D01*
X190966794Y-120005201D01*
X190929375Y-120034484D01*
X190803211Y-120098768D01*
X190723256Y-120156859D01*
X190663072Y-120200586D01*
X190663070Y-120200588D01*
X190663069Y-120200588D01*
X190540588Y-120323069D01*
X190540588Y-120323070D01*
X190540586Y-120323072D01*
X190496859Y-120383256D01*
X190438768Y-120463211D01*
X190360128Y-120617552D01*
X190306597Y-120782302D01*
X190279500Y-120953389D01*
X190279500Y-121126610D01*
X190300262Y-121257701D01*
X190306598Y-121297701D01*
X190360127Y-121462445D01*
X190438768Y-121616788D01*
X190540586Y-121756928D01*
X190663072Y-121879414D01*
X190803212Y-121981232D01*
X190957555Y-122059873D01*
X191122299Y-122113402D01*
X191293389Y-122140500D01*
X191293390Y-122140500D01*
X191466610Y-122140500D01*
X191466611Y-122140500D01*
X191637701Y-122113402D01*
X191802445Y-122059873D01*
X191956788Y-121981232D01*
X192096928Y-121879414D01*
X192219414Y-121756928D01*
X192321232Y-121616788D01*
X192351081Y-121558204D01*
X192399053Y-121507410D01*
X192461565Y-121490500D01*
X195802035Y-121490500D01*
X195869074Y-121510185D01*
X195889716Y-121526819D01*
X197863181Y-123500284D01*
X197896666Y-123561607D01*
X197899500Y-123587965D01*
X197899500Y-123666610D01*
X197926597Y-123837697D01*
X197926597Y-123837699D01*
X197926598Y-123837701D01*
X197980127Y-124002445D01*
X198058768Y-124156788D01*
X198160586Y-124296928D01*
X198283072Y-124419414D01*
X198423212Y-124521232D01*
X198577555Y-124599873D01*
X198742299Y-124653402D01*
X198913389Y-124680500D01*
X198913390Y-124680500D01*
X199086610Y-124680500D01*
X199086611Y-124680500D01*
X199257701Y-124653402D01*
X199320231Y-124633083D01*
X199390070Y-124631087D01*
X199446229Y-124663332D01*
X200989506Y-126206610D01*
X201650451Y-126867555D01*
X201650457Y-126867560D01*
X203472479Y-128689582D01*
X203505964Y-128750905D01*
X203500980Y-128820597D01*
X203459108Y-128876530D01*
X203399583Y-128900378D01*
X203371933Y-128903698D01*
X203318437Y-128910122D01*
X203177656Y-128965639D01*
X203057077Y-129057077D01*
X202965639Y-129177656D01*
X202910122Y-129318438D01*
X202904188Y-129367853D01*
X202899500Y-129406898D01*
X202899500Y-130593102D01*
X202900607Y-130602317D01*
X202910122Y-130681561D01*
X202965639Y-130822343D01*
X203057077Y-130942922D01*
X203177656Y-131034360D01*
X203177657Y-131034360D01*
X203177658Y-131034361D01*
X203318436Y-131089877D01*
X203406898Y-131100500D01*
X203406903Y-131100500D01*
X204593097Y-131100500D01*
X204593102Y-131100500D01*
X204681564Y-131089877D01*
X204822342Y-131034361D01*
X204942922Y-130942922D01*
X205034361Y-130822342D01*
X205089877Y-130681564D01*
X205100500Y-130593102D01*
X205100500Y-130593085D01*
X205100689Y-130589932D01*
X205124344Y-130524188D01*
X205136787Y-130509658D01*
X205600000Y-130046445D01*
X205600000Y-130052661D01*
X205627259Y-130154394D01*
X205679920Y-130245606D01*
X205754394Y-130320080D01*
X205845606Y-130372741D01*
X205947339Y-130400000D01*
X205953553Y-130400000D01*
X205274076Y-131079474D01*
X205318650Y-131111859D01*
X205500968Y-131204755D01*
X205695582Y-131267990D01*
X205897683Y-131300000D01*
X206102317Y-131300000D01*
X206304417Y-131267990D01*
X206499031Y-131204755D01*
X206681349Y-131111859D01*
X206725921Y-131079474D01*
X206046447Y-130400000D01*
X206052661Y-130400000D01*
X206154394Y-130372741D01*
X206245606Y-130320080D01*
X206320080Y-130245606D01*
X206372741Y-130154394D01*
X206400000Y-130052661D01*
X206400000Y-130046447D01*
X207079474Y-130725921D01*
X207111859Y-130681349D01*
X207204755Y-130499031D01*
X207267990Y-130304417D01*
X207300000Y-130102317D01*
X207300000Y-129897682D01*
X207267990Y-129695582D01*
X207204755Y-129500968D01*
X207111859Y-129318650D01*
X207079474Y-129274077D01*
X207079474Y-129274076D01*
X206400000Y-129953551D01*
X206400000Y-129947339D01*
X206372741Y-129845606D01*
X206320080Y-129754394D01*
X206245606Y-129679920D01*
X206154394Y-129627259D01*
X206052661Y-129600000D01*
X206046446Y-129600000D01*
X206725922Y-128920524D01*
X206725921Y-128920523D01*
X206681359Y-128888147D01*
X206681350Y-128888141D01*
X206499031Y-128795244D01*
X206304417Y-128732009D01*
X206102317Y-128700000D01*
X205897683Y-128700000D01*
X205695582Y-128732009D01*
X205500968Y-128795244D01*
X205318644Y-128888143D01*
X205274077Y-128920523D01*
X205274077Y-128920524D01*
X205953554Y-129600000D01*
X205947339Y-129600000D01*
X205845606Y-129627259D01*
X205754394Y-129679920D01*
X205679920Y-129754394D01*
X205627259Y-129845606D01*
X205600000Y-129947339D01*
X205600000Y-129953553D01*
X205136787Y-129490340D01*
X205103302Y-129429017D01*
X205100690Y-129410068D01*
X205100501Y-129406912D01*
X205100500Y-129406903D01*
X205100500Y-129406898D01*
X205089877Y-129318436D01*
X205034361Y-129177658D01*
X205034360Y-129177657D01*
X205034360Y-129177656D01*
X204942922Y-129057077D01*
X204822343Y-128965639D01*
X204681561Y-128910122D01*
X204635926Y-128904642D01*
X204593102Y-128899500D01*
X204593097Y-128899500D01*
X204574500Y-128899500D01*
X204507461Y-128879815D01*
X204461706Y-128827011D01*
X204450500Y-128775500D01*
X204450500Y-128520693D01*
X204450500Y-128520691D01*
X204419799Y-128406114D01*
X204419799Y-128406113D01*
X204360489Y-128303386D01*
X203219284Y-127162181D01*
X203185799Y-127100858D01*
X203190783Y-127031166D01*
X203232655Y-126975233D01*
X203298119Y-126950816D01*
X203306965Y-126950500D01*
X212059306Y-126950500D01*
X212059309Y-126950500D01*
X212173886Y-126919799D01*
X212276613Y-126860489D01*
X212360489Y-126776613D01*
X212419799Y-126673886D01*
X212450500Y-126559309D01*
X212450500Y-125581565D01*
X212470185Y-125514526D01*
X212518204Y-125471081D01*
X212576788Y-125441232D01*
X212716928Y-125339414D01*
X212839414Y-125216928D01*
X212941232Y-125076788D01*
X213019873Y-124922445D01*
X213073402Y-124757701D01*
X213100500Y-124586611D01*
X213100500Y-124413389D01*
X213073402Y-124242299D01*
X213019873Y-124077555D01*
X212941232Y-123923212D01*
X212839414Y-123783072D01*
X212716928Y-123660586D01*
X212576788Y-123558768D01*
X212422445Y-123480127D01*
X212257701Y-123426598D01*
X212257699Y-123426597D01*
X212257698Y-123426597D01*
X212124613Y-123405519D01*
X212086611Y-123399500D01*
X211913389Y-123399500D01*
X211875387Y-123405519D01*
X211742302Y-123426597D01*
X211577552Y-123480128D01*
X211423211Y-123558768D01*
X211374057Y-123594481D01*
X211283072Y-123660586D01*
X211283070Y-123660588D01*
X211283069Y-123660588D01*
X211160588Y-123783069D01*
X211160588Y-123783070D01*
X211160586Y-123783072D01*
X211120898Y-123837698D01*
X211058768Y-123923211D01*
X210980128Y-124077552D01*
X210926597Y-124242302D01*
X210917945Y-124296929D01*
X210899500Y-124413389D01*
X210899500Y-124586611D01*
X210903608Y-124612545D01*
X210926516Y-124757187D01*
X210926598Y-124757701D01*
X210980127Y-124922445D01*
X211058768Y-125076788D01*
X211160586Y-125216928D01*
X211283072Y-125339414D01*
X211362186Y-125396894D01*
X211423207Y-125441229D01*
X211423211Y-125441231D01*
X211423212Y-125441232D01*
X211481795Y-125471081D01*
X211532590Y-125519053D01*
X211549500Y-125581565D01*
X211549500Y-125925500D01*
X211529815Y-125992539D01*
X211477011Y-126038294D01*
X211425500Y-126049500D01*
X202157966Y-126049500D01*
X202090927Y-126029815D01*
X202070285Y-126013181D01*
X201866468Y-125809364D01*
X201832983Y-125748041D01*
X201837967Y-125678349D01*
X201879839Y-125622416D01*
X201934749Y-125599210D01*
X202055317Y-125580114D01*
X202097696Y-125573403D01*
X202097696Y-125573402D01*
X202097701Y-125573402D01*
X202262445Y-125519873D01*
X202416788Y-125441232D01*
X202556928Y-125339414D01*
X202679414Y-125216928D01*
X202781232Y-125076788D01*
X202859873Y-124922445D01*
X202913402Y-124757701D01*
X202940500Y-124586611D01*
X202940500Y-124413389D01*
X202913402Y-124242299D01*
X202859873Y-124077555D01*
X202781232Y-123923212D01*
X202679414Y-123783072D01*
X202556928Y-123660586D01*
X202416788Y-123558768D01*
X202416787Y-123558767D01*
X202416785Y-123558766D01*
X202358204Y-123528917D01*
X202307409Y-123480943D01*
X202290500Y-123418433D01*
X202290500Y-122122328D01*
X202310185Y-122055289D01*
X202358205Y-122011843D01*
X202364928Y-122008417D01*
X202496788Y-121941232D01*
X202636928Y-121839414D01*
X202759414Y-121716928D01*
X202861232Y-121576788D01*
X202939873Y-121422445D01*
X202993402Y-121257701D01*
X203020500Y-121086611D01*
X203020500Y-120913389D01*
X202993402Y-120742299D01*
X202939873Y-120577555D01*
X202861232Y-120423212D01*
X202759414Y-120283072D01*
X202636928Y-120160586D01*
X202496788Y-120058768D01*
X202342445Y-119980127D01*
X202177701Y-119926598D01*
X202177699Y-119926597D01*
X202177698Y-119926597D01*
X202046271Y-119905781D01*
X202006611Y-119899500D01*
X201833389Y-119899500D01*
X201793728Y-119905781D01*
X201662302Y-119926597D01*
X201497552Y-119980128D01*
X201343211Y-120058768D01*
X201288157Y-120098768D01*
X201203072Y-120160586D01*
X201203070Y-120160588D01*
X201203069Y-120160588D01*
X201080588Y-120283069D01*
X201080588Y-120283070D01*
X201080586Y-120283072D01*
X201051526Y-120323069D01*
X200978766Y-120423213D01*
X200928538Y-120521794D01*
X200880564Y-120572591D01*
X200818053Y-120589500D01*
X200081565Y-120589500D01*
X200014526Y-120569815D01*
X199971081Y-120521795D01*
X199941232Y-120463212D01*
X199941231Y-120463211D01*
X199941229Y-120463207D01*
X199911672Y-120422526D01*
X199839414Y-120323072D01*
X199716928Y-120200586D01*
X199576788Y-120098768D01*
X199498283Y-120058768D01*
X199422447Y-120020128D01*
X199422446Y-120020127D01*
X199422445Y-120020127D01*
X199257701Y-119966598D01*
X199257699Y-119966597D01*
X199257698Y-119966597D01*
X199126271Y-119945781D01*
X199086611Y-119939500D01*
X198913389Y-119939500D01*
X198873728Y-119945781D01*
X198742302Y-119966597D01*
X198577552Y-120020128D01*
X198423211Y-120098768D01*
X198343256Y-120156859D01*
X198283072Y-120200586D01*
X198283070Y-120200588D01*
X198283069Y-120200588D01*
X198160588Y-120323069D01*
X198160588Y-120323070D01*
X198160586Y-120323072D01*
X198116859Y-120383256D01*
X198058768Y-120463211D01*
X197980128Y-120617552D01*
X197926597Y-120782302D01*
X197899500Y-120953389D01*
X197899500Y-121126610D01*
X197920262Y-121257701D01*
X197926598Y-121297701D01*
X197980127Y-121462445D01*
X198058768Y-121616788D01*
X198160586Y-121756928D01*
X198283072Y-121879414D01*
X198423212Y-121981232D01*
X198577555Y-122059873D01*
X198742299Y-122113402D01*
X198913389Y-122140500D01*
X198913390Y-122140500D01*
X199086610Y-122140500D01*
X199086611Y-122140500D01*
X199257701Y-122113402D01*
X199422445Y-122059873D01*
X199576788Y-121981232D01*
X199716928Y-121879414D01*
X199839414Y-121756928D01*
X199941232Y-121616788D01*
X199971081Y-121558204D01*
X200019053Y-121507410D01*
X200081565Y-121490500D01*
X200858815Y-121490500D01*
X200925854Y-121510185D01*
X200969299Y-121558205D01*
X200978768Y-121576788D01*
X201080586Y-121716928D01*
X201203072Y-121839414D01*
X201338387Y-121937726D01*
X201381051Y-121993055D01*
X201389500Y-122038043D01*
X201389500Y-123418433D01*
X201369815Y-123485472D01*
X201321796Y-123528917D01*
X201263214Y-123558766D01*
X201223026Y-123587965D01*
X201123072Y-123660586D01*
X201123070Y-123660588D01*
X201123069Y-123660588D01*
X201000588Y-123783069D01*
X201000588Y-123783070D01*
X201000586Y-123783072D01*
X200960898Y-123837698D01*
X200898768Y-123923211D01*
X200820128Y-124077552D01*
X200766597Y-124242302D01*
X200740789Y-124405249D01*
X200710860Y-124468384D01*
X200651548Y-124505315D01*
X200581686Y-124504317D01*
X200530635Y-124473532D01*
X200083333Y-124026230D01*
X200049848Y-123964907D01*
X200053083Y-123900231D01*
X200073402Y-123837701D01*
X200100500Y-123666611D01*
X200100500Y-123493389D01*
X200073402Y-123322299D01*
X200019873Y-123157555D01*
X199941232Y-123003212D01*
X199839414Y-122863072D01*
X199716928Y-122740586D01*
X199576788Y-122638768D01*
X199422445Y-122560127D01*
X199257701Y-122506598D01*
X199257699Y-122506597D01*
X199257698Y-122506597D01*
X199126271Y-122485781D01*
X199086611Y-122479500D01*
X198913389Y-122479500D01*
X198873728Y-122485781D01*
X198742302Y-122506597D01*
X198577552Y-122560128D01*
X198423210Y-122638769D01*
X198419051Y-122641318D01*
X198418452Y-122640341D01*
X198357740Y-122662000D01*
X198289687Y-122646171D01*
X198262986Y-122625883D01*
X196316616Y-120679513D01*
X196316614Y-120679511D01*
X196265250Y-120649856D01*
X196213888Y-120620201D01*
X196201780Y-120616957D01*
X196189673Y-120613713D01*
X196189670Y-120613712D01*
X196151478Y-120603478D01*
X196099309Y-120589500D01*
X196099308Y-120589500D01*
X192461565Y-120589500D01*
X192394526Y-120569815D01*
X192351081Y-120521795D01*
X192321232Y-120463212D01*
X192321231Y-120463211D01*
X192321229Y-120463207D01*
X192291672Y-120422526D01*
X192219414Y-120323072D01*
X192096928Y-120200586D01*
X192026858Y-120149677D01*
X191956786Y-120098766D01*
X191830623Y-120034484D01*
X191779826Y-119986510D01*
X191763031Y-119918689D01*
X191785568Y-119852554D01*
X191840283Y-119809102D01*
X191886917Y-119799999D01*
X191979971Y-119799999D01*
X191979987Y-119799998D01*
X192082697Y-119789505D01*
X192249119Y-119734358D01*
X192249124Y-119734356D01*
X192398345Y-119642315D01*
X192522315Y-119518345D01*
X192614356Y-119369124D01*
X192614358Y-119369119D01*
X192669505Y-119202697D01*
X192669506Y-119202690D01*
X192679999Y-119099986D01*
X192680000Y-119099973D01*
X192680000Y-118750000D01*
X191695686Y-118750000D01*
X191700080Y-118745606D01*
X191752741Y-118654394D01*
X191780000Y-118552661D01*
X191780000Y-118447339D01*
X191752741Y-118345606D01*
X191700080Y-118254394D01*
X191695686Y-118250000D01*
X192679999Y-118250000D01*
X192679999Y-117900028D01*
X192679998Y-117900013D01*
X192669505Y-117797302D01*
X192614358Y-117630880D01*
X192614356Y-117630875D01*
X192522315Y-117481654D01*
X192398345Y-117357684D01*
X192249124Y-117265643D01*
X192249119Y-117265641D01*
X192082697Y-117210494D01*
X192082690Y-117210493D01*
X191979986Y-117200000D01*
X191630000Y-117200000D01*
X191630000Y-118184314D01*
X191625606Y-118179920D01*
X191534394Y-118127259D01*
X191432661Y-118100000D01*
X191327339Y-118100000D01*
X191225606Y-118127259D01*
X191134394Y-118179920D01*
X191130000Y-118184314D01*
X191130000Y-117200000D01*
X190780028Y-117200000D01*
X190780012Y-117200001D01*
X190677302Y-117210494D01*
X190510880Y-117265641D01*
X190510875Y-117265643D01*
X190361654Y-117357684D01*
X190237684Y-117481654D01*
X190145643Y-117630875D01*
X190145641Y-117630880D01*
X190090494Y-117797302D01*
X190090493Y-117797309D01*
X190080000Y-117900013D01*
X168500500Y-117900013D01*
X168500500Y-114707682D01*
X196385000Y-114707682D01*
X196385000Y-114912317D01*
X196417009Y-115114417D01*
X196480244Y-115309031D01*
X196573141Y-115491350D01*
X196573147Y-115491359D01*
X196605523Y-115535921D01*
X196605524Y-115535922D01*
X197285000Y-114856446D01*
X197285000Y-114862661D01*
X197312259Y-114964394D01*
X197364920Y-115055606D01*
X197439394Y-115130080D01*
X197530606Y-115182741D01*
X197632339Y-115210000D01*
X197638553Y-115210000D01*
X196959076Y-115889474D01*
X197003650Y-115921859D01*
X197185968Y-116014755D01*
X197380582Y-116077990D01*
X197582683Y-116110000D01*
X197787317Y-116110000D01*
X197989417Y-116077990D01*
X198184031Y-116014755D01*
X198366349Y-115921859D01*
X198410921Y-115889474D01*
X197731447Y-115210000D01*
X197737661Y-115210000D01*
X197839394Y-115182741D01*
X197930606Y-115130080D01*
X198005080Y-115055606D01*
X198057741Y-114964394D01*
X198085000Y-114862661D01*
X198085000Y-114856447D01*
X198764474Y-115535921D01*
X198796859Y-115491349D01*
X198889755Y-115309031D01*
X198952990Y-115114417D01*
X198985000Y-114912317D01*
X198985000Y-114707682D01*
X198952990Y-114505582D01*
X198889755Y-114310968D01*
X198796859Y-114128650D01*
X198764474Y-114084077D01*
X198764474Y-114084076D01*
X198085000Y-114763551D01*
X198085000Y-114757339D01*
X198057741Y-114655606D01*
X198005080Y-114564394D01*
X197930606Y-114489920D01*
X197839394Y-114437259D01*
X197737661Y-114410000D01*
X197731446Y-114410000D01*
X198410922Y-113730524D01*
X198410921Y-113730523D01*
X198366359Y-113698147D01*
X198366350Y-113698141D01*
X198184031Y-113605244D01*
X197989417Y-113542009D01*
X197787317Y-113510000D01*
X197582683Y-113510000D01*
X197380582Y-113542009D01*
X197185968Y-113605244D01*
X197003644Y-113698143D01*
X196959077Y-113730523D01*
X196959077Y-113730524D01*
X197638554Y-114410000D01*
X197632339Y-114410000D01*
X197530606Y-114437259D01*
X197439394Y-114489920D01*
X197364920Y-114564394D01*
X197312259Y-114655606D01*
X197285000Y-114757339D01*
X197285000Y-114763553D01*
X196605524Y-114084077D01*
X196605523Y-114084077D01*
X196573143Y-114128644D01*
X196480244Y-114310968D01*
X196417009Y-114505582D01*
X196385000Y-114707682D01*
X168500500Y-114707682D01*
X168500500Y-109158753D01*
X172650000Y-109158753D01*
X172650000Y-109371246D01*
X172683242Y-109581127D01*
X172683242Y-109581130D01*
X172748904Y-109783217D01*
X172845375Y-109972550D01*
X172884728Y-110026716D01*
X173517037Y-109394408D01*
X173534075Y-109457993D01*
X173599901Y-109572007D01*
X173692993Y-109665099D01*
X173807007Y-109730925D01*
X173870590Y-109747962D01*
X173238282Y-110380269D01*
X173238282Y-110380270D01*
X173292449Y-110419624D01*
X173481782Y-110516095D01*
X173683870Y-110581757D01*
X173893754Y-110615000D01*
X174106246Y-110615000D01*
X174316127Y-110581757D01*
X174316130Y-110581757D01*
X174518217Y-110516095D01*
X174707554Y-110419622D01*
X174761716Y-110380270D01*
X174761717Y-110380270D01*
X174129408Y-109747962D01*
X174192993Y-109730925D01*
X174307007Y-109665099D01*
X174400099Y-109572007D01*
X174465925Y-109457993D01*
X174482962Y-109394408D01*
X175115270Y-110026717D01*
X175115270Y-110026716D01*
X175154622Y-109972554D01*
X175251095Y-109783217D01*
X175316757Y-109581130D01*
X175316757Y-109581127D01*
X175350000Y-109371246D01*
X175350000Y-109158753D01*
X175316757Y-108948872D01*
X175316757Y-108948869D01*
X175251095Y-108746782D01*
X175154624Y-108557449D01*
X175115270Y-108503282D01*
X175115269Y-108503282D01*
X174482962Y-109135590D01*
X174465925Y-109072007D01*
X174400099Y-108957993D01*
X174307007Y-108864901D01*
X174192993Y-108799075D01*
X174129409Y-108782037D01*
X174761716Y-108149728D01*
X174707550Y-108110375D01*
X174706786Y-108109986D01*
X174706546Y-108109759D01*
X174703396Y-108107829D01*
X174703801Y-108107167D01*
X174655988Y-108062013D01*
X174639191Y-107994192D01*
X174661726Y-107928057D01*
X174716440Y-107884604D01*
X174763076Y-107875499D01*
X174894864Y-107875499D01*
X174894879Y-107875497D01*
X174894882Y-107875497D01*
X174919987Y-107872586D01*
X174919988Y-107872585D01*
X174919991Y-107872585D01*
X175022765Y-107827206D01*
X175102206Y-107747765D01*
X175147585Y-107644991D01*
X175150500Y-107619865D01*
X175150500Y-107399500D01*
X175170185Y-107332461D01*
X175222989Y-107286706D01*
X175274500Y-107275500D01*
X194320613Y-107275500D01*
X194387652Y-107295185D01*
X194408294Y-107311819D01*
X201572005Y-114475529D01*
X201605490Y-114536852D01*
X201606797Y-114582607D01*
X201584500Y-114723388D01*
X201584500Y-114896610D01*
X201606797Y-115037389D01*
X201597842Y-115106683D01*
X201572005Y-115144468D01*
X199330152Y-117386321D01*
X199268829Y-117419806D01*
X199223074Y-117421113D01*
X199086611Y-117399500D01*
X198913389Y-117399500D01*
X198873728Y-117405781D01*
X198742302Y-117426597D01*
X198577552Y-117480128D01*
X198423211Y-117558768D01*
X198343256Y-117616859D01*
X198283072Y-117660586D01*
X198283070Y-117660588D01*
X198283069Y-117660588D01*
X198160588Y-117783069D01*
X198160588Y-117783070D01*
X198160586Y-117783072D01*
X198116859Y-117843256D01*
X198058768Y-117923211D01*
X197980128Y-118077552D01*
X197926597Y-118242302D01*
X197925378Y-118250000D01*
X197899500Y-118413389D01*
X197899500Y-118586611D01*
X197926598Y-118757701D01*
X197980127Y-118922445D01*
X198058768Y-119076788D01*
X198160586Y-119216928D01*
X198283072Y-119339414D01*
X198423212Y-119441232D01*
X198577555Y-119519873D01*
X198742299Y-119573402D01*
X198913389Y-119600500D01*
X198913390Y-119600500D01*
X199086610Y-119600500D01*
X199086611Y-119600500D01*
X199257701Y-119573402D01*
X199422445Y-119519873D01*
X199576788Y-119441232D01*
X199716928Y-119339414D01*
X199839414Y-119216928D01*
X199923195Y-119101614D01*
X199978526Y-119058949D01*
X200023513Y-119050500D01*
X211405500Y-119050500D01*
X211472539Y-119070185D01*
X211518294Y-119122989D01*
X211529500Y-119174500D01*
X211529500Y-119976488D01*
X211509815Y-120043527D01*
X211478385Y-120076806D01*
X211363075Y-120160583D01*
X211363069Y-120160588D01*
X211240588Y-120283069D01*
X211240588Y-120283070D01*
X211240586Y-120283072D01*
X211211526Y-120323070D01*
X211138768Y-120423211D01*
X211060128Y-120577552D01*
X211006597Y-120742302D01*
X211000262Y-120782302D01*
X210979500Y-120913389D01*
X210979500Y-121086611D01*
X211006598Y-121257701D01*
X211060127Y-121422445D01*
X211138768Y-121576788D01*
X211240586Y-121716928D01*
X211363072Y-121839414D01*
X211503212Y-121941232D01*
X211657555Y-122019873D01*
X211822299Y-122073402D01*
X211993389Y-122100500D01*
X211993390Y-122100500D01*
X212166610Y-122100500D01*
X212166611Y-122100500D01*
X212337701Y-122073402D01*
X212502445Y-122019873D01*
X212656788Y-121941232D01*
X212796928Y-121839414D01*
X212919414Y-121716928D01*
X213021232Y-121576788D01*
X213099873Y-121422445D01*
X213153402Y-121257701D01*
X213180500Y-121086611D01*
X213180500Y-120913389D01*
X213153402Y-120742299D01*
X213099873Y-120577555D01*
X213021232Y-120423212D01*
X212919414Y-120283072D01*
X212796928Y-120160586D01*
X212681614Y-120076805D01*
X212638949Y-120021476D01*
X212630500Y-119976488D01*
X212630500Y-118507527D01*
X212630500Y-118507525D01*
X212592984Y-118367515D01*
X212520510Y-118241985D01*
X212338015Y-118059490D01*
X212212485Y-117987016D01*
X212211481Y-117986747D01*
X212193826Y-117982015D01*
X212193826Y-117982016D01*
X212133150Y-117965758D01*
X212072475Y-117949500D01*
X212072474Y-117949500D01*
X200623387Y-117949500D01*
X200556348Y-117929815D01*
X200510593Y-117877011D01*
X200500649Y-117807853D01*
X200529674Y-117744297D01*
X200535706Y-117737819D01*
X200915841Y-117357684D01*
X202350531Y-115922992D01*
X202411852Y-115889509D01*
X202457605Y-115888202D01*
X202598389Y-115910500D01*
X202598390Y-115910500D01*
X202771610Y-115910500D01*
X202771611Y-115910500D01*
X202942701Y-115883402D01*
X203107445Y-115829873D01*
X203261788Y-115751232D01*
X203401928Y-115649414D01*
X203524414Y-115526928D01*
X203626232Y-115386788D01*
X203704873Y-115232445D01*
X203758402Y-115067701D01*
X203785500Y-114896611D01*
X203785500Y-114723389D01*
X203758402Y-114552299D01*
X203704873Y-114387555D01*
X203626232Y-114233212D01*
X203524414Y-114093072D01*
X203401928Y-113970586D01*
X203261788Y-113868768D01*
X203107445Y-113790127D01*
X202942701Y-113736598D01*
X202942699Y-113736597D01*
X202942698Y-113736597D01*
X202811271Y-113715781D01*
X202771611Y-113709500D01*
X202598389Y-113709500D01*
X202457607Y-113731797D01*
X202388314Y-113722842D01*
X202350529Y-113697005D01*
X194938016Y-106284491D01*
X194938015Y-106284490D01*
X194812485Y-106212016D01*
X194812486Y-106212016D01*
X194777482Y-106202637D01*
X194672475Y-106174500D01*
X194672472Y-106174500D01*
X175274499Y-106174500D01*
X175207460Y-106154815D01*
X175161705Y-106102011D01*
X175150499Y-106050500D01*
X175150499Y-105830143D01*
X175150499Y-105830136D01*
X175150497Y-105830117D01*
X175147586Y-105805012D01*
X175147585Y-105805010D01*
X175147585Y-105805009D01*
X175102206Y-105702235D01*
X175022765Y-105622794D01*
X175022763Y-105622793D01*
X174919992Y-105577415D01*
X174894865Y-105574500D01*
X173105143Y-105574500D01*
X173105117Y-105574502D01*
X173080012Y-105577413D01*
X173080008Y-105577415D01*
X172977235Y-105622793D01*
X172897794Y-105702234D01*
X172852415Y-105805006D01*
X172852415Y-105805008D01*
X172849500Y-105830131D01*
X172849500Y-107619856D01*
X172849502Y-107619882D01*
X172852413Y-107644987D01*
X172852415Y-107644991D01*
X172897793Y-107747764D01*
X172897794Y-107747765D01*
X172977235Y-107827206D01*
X173080009Y-107872585D01*
X173105135Y-107875500D01*
X173236923Y-107875499D01*
X173303960Y-107895183D01*
X173349715Y-107947987D01*
X173359659Y-108017145D01*
X173330635Y-108080701D01*
X173296387Y-108107507D01*
X173296590Y-108107838D01*
X173293715Y-108109599D01*
X173293239Y-108109972D01*
X173292451Y-108110373D01*
X173292440Y-108110380D01*
X173238282Y-108149727D01*
X173238282Y-108149728D01*
X173870591Y-108782037D01*
X173807007Y-108799075D01*
X173692993Y-108864901D01*
X173599901Y-108957993D01*
X173534075Y-109072007D01*
X173517037Y-109135591D01*
X172884728Y-108503282D01*
X172884727Y-108503282D01*
X172845380Y-108557439D01*
X172748904Y-108746782D01*
X172683242Y-108948869D01*
X172683242Y-108948872D01*
X172650000Y-109158753D01*
X168500500Y-109158753D01*
X168500500Y-101624500D01*
X168520185Y-101557461D01*
X168572989Y-101511706D01*
X168624500Y-101500500D01*
X217374393Y-101500500D01*
X217441432Y-101520185D01*
G37*
%TD.AperFunction*%
%TD*%
M02*
