%TF.GenerationSoftware,KiCad,Pcbnew,10.0.6*%
%TF.CreationDate,2026-10-06T15:45:22-04:00*%
%TF.ProjectId,555_Timer_PCB,3535355f-5469-46d6-9572-5f5043422e6b,rev?*%
%TF.SameCoordinates,Original*%
%TF.FileFunction,Legend,Top*%
%TF.FilePolarity,Positive*%
%FSLAX46Y46*%
G04 Gerber Fmt 4.6, Leading zero omitted, Abs format (unit mm)*
G04 Created by KiCad (PCBNEW 10.0.6) date 2026-10-06 15:45:22*
%MOMM*%
%LPD*%
G01*
G04 APERTURE LIST*
%ADD10C,0.150000*%
%ADD11C,0.120000*%
G04 APERTURE END LIST*
D10*
X172756905Y-119994819D02*
X172756905Y-118994819D01*
X172756905Y-118994819D02*
X172995000Y-118994819D01*
X172995000Y-118994819D02*
X173137857Y-119042438D01*
X173137857Y-119042438D02*
X173233095Y-119137676D01*
X173233095Y-119137676D02*
X173280714Y-119232914D01*
X173280714Y-119232914D02*
X173328333Y-119423390D01*
X173328333Y-119423390D02*
X173328333Y-119566247D01*
X173328333Y-119566247D02*
X173280714Y-119756723D01*
X173280714Y-119756723D02*
X173233095Y-119851961D01*
X173233095Y-119851961D02*
X173137857Y-119947200D01*
X173137857Y-119947200D02*
X172995000Y-119994819D01*
X172995000Y-119994819D02*
X172756905Y-119994819D01*
X174280714Y-119994819D02*
X173709286Y-119994819D01*
X173995000Y-119994819D02*
X173995000Y-118994819D01*
X173995000Y-118994819D02*
X173899762Y-119137676D01*
X173899762Y-119137676D02*
X173804524Y-119232914D01*
X173804524Y-119232914D02*
X173709286Y-119280533D01*
X197333333Y-112859580D02*
X197285714Y-112907200D01*
X197285714Y-112907200D02*
X197142857Y-112954819D01*
X197142857Y-112954819D02*
X197047619Y-112954819D01*
X197047619Y-112954819D02*
X196904762Y-112907200D01*
X196904762Y-112907200D02*
X196809524Y-112811961D01*
X196809524Y-112811961D02*
X196761905Y-112716723D01*
X196761905Y-112716723D02*
X196714286Y-112526247D01*
X196714286Y-112526247D02*
X196714286Y-112383390D01*
X196714286Y-112383390D02*
X196761905Y-112192914D01*
X196761905Y-112192914D02*
X196809524Y-112097676D01*
X196809524Y-112097676D02*
X196904762Y-112002438D01*
X196904762Y-112002438D02*
X197047619Y-111954819D01*
X197047619Y-111954819D02*
X197142857Y-111954819D01*
X197142857Y-111954819D02*
X197285714Y-112002438D01*
X197285714Y-112002438D02*
X197333333Y-112050057D01*
X197666667Y-111954819D02*
X198285714Y-111954819D01*
X198285714Y-111954819D02*
X197952381Y-112335771D01*
X197952381Y-112335771D02*
X198095238Y-112335771D01*
X198095238Y-112335771D02*
X198190476Y-112383390D01*
X198190476Y-112383390D02*
X198238095Y-112431009D01*
X198238095Y-112431009D02*
X198285714Y-112526247D01*
X198285714Y-112526247D02*
X198285714Y-112764342D01*
X198285714Y-112764342D02*
X198238095Y-112859580D01*
X198238095Y-112859580D02*
X198190476Y-112907200D01*
X198190476Y-112907200D02*
X198095238Y-112954819D01*
X198095238Y-112954819D02*
X197809524Y-112954819D01*
X197809524Y-112954819D02*
X197714286Y-112907200D01*
X197714286Y-112907200D02*
X197666667Y-112859580D01*
X183253333Y-121584819D02*
X182920000Y-121108628D01*
X182681905Y-121584819D02*
X182681905Y-120584819D01*
X182681905Y-120584819D02*
X183062857Y-120584819D01*
X183062857Y-120584819D02*
X183158095Y-120632438D01*
X183158095Y-120632438D02*
X183205714Y-120680057D01*
X183205714Y-120680057D02*
X183253333Y-120775295D01*
X183253333Y-120775295D02*
X183253333Y-120918152D01*
X183253333Y-120918152D02*
X183205714Y-121013390D01*
X183205714Y-121013390D02*
X183158095Y-121061009D01*
X183158095Y-121061009D02*
X183062857Y-121108628D01*
X183062857Y-121108628D02*
X182681905Y-121108628D01*
X183586667Y-120584819D02*
X184205714Y-120584819D01*
X184205714Y-120584819D02*
X183872381Y-120965771D01*
X183872381Y-120965771D02*
X184015238Y-120965771D01*
X184015238Y-120965771D02*
X184110476Y-121013390D01*
X184110476Y-121013390D02*
X184158095Y-121061009D01*
X184158095Y-121061009D02*
X184205714Y-121156247D01*
X184205714Y-121156247D02*
X184205714Y-121394342D01*
X184205714Y-121394342D02*
X184158095Y-121489580D01*
X184158095Y-121489580D02*
X184110476Y-121537200D01*
X184110476Y-121537200D02*
X184015238Y-121584819D01*
X184015238Y-121584819D02*
X183729524Y-121584819D01*
X183729524Y-121584819D02*
X183634286Y-121537200D01*
X183634286Y-121537200D02*
X183586667Y-121489580D01*
X209333333Y-130859580D02*
X209285714Y-130907200D01*
X209285714Y-130907200D02*
X209142857Y-130954819D01*
X209142857Y-130954819D02*
X209047619Y-130954819D01*
X209047619Y-130954819D02*
X208904762Y-130907200D01*
X208904762Y-130907200D02*
X208809524Y-130811961D01*
X208809524Y-130811961D02*
X208761905Y-130716723D01*
X208761905Y-130716723D02*
X208714286Y-130526247D01*
X208714286Y-130526247D02*
X208714286Y-130383390D01*
X208714286Y-130383390D02*
X208761905Y-130192914D01*
X208761905Y-130192914D02*
X208809524Y-130097676D01*
X208809524Y-130097676D02*
X208904762Y-130002438D01*
X208904762Y-130002438D02*
X209047619Y-129954819D01*
X209047619Y-129954819D02*
X209142857Y-129954819D01*
X209142857Y-129954819D02*
X209285714Y-130002438D01*
X209285714Y-130002438D02*
X209333333Y-130050057D01*
X210285714Y-130954819D02*
X209714286Y-130954819D01*
X210000000Y-130954819D02*
X210000000Y-129954819D01*
X210000000Y-129954819D02*
X209904762Y-130097676D01*
X209904762Y-130097676D02*
X209809524Y-130192914D01*
X209809524Y-130192914D02*
X209714286Y-130240533D01*
X215333333Y-121454819D02*
X215000000Y-120978628D01*
X214761905Y-121454819D02*
X214761905Y-120454819D01*
X214761905Y-120454819D02*
X215142857Y-120454819D01*
X215142857Y-120454819D02*
X215238095Y-120502438D01*
X215238095Y-120502438D02*
X215285714Y-120550057D01*
X215285714Y-120550057D02*
X215333333Y-120645295D01*
X215333333Y-120645295D02*
X215333333Y-120788152D01*
X215333333Y-120788152D02*
X215285714Y-120883390D01*
X215285714Y-120883390D02*
X215238095Y-120931009D01*
X215238095Y-120931009D02*
X215142857Y-120978628D01*
X215142857Y-120978628D02*
X214761905Y-120978628D01*
X216285714Y-121454819D02*
X215714286Y-121454819D01*
X216000000Y-121454819D02*
X216000000Y-120454819D01*
X216000000Y-120454819D02*
X215904762Y-120597676D01*
X215904762Y-120597676D02*
X215809524Y-120692914D01*
X215809524Y-120692914D02*
X215714286Y-120740533D01*
X190738095Y-114454819D02*
X190738095Y-115264342D01*
X190738095Y-115264342D02*
X190785714Y-115359580D01*
X190785714Y-115359580D02*
X190833333Y-115407200D01*
X190833333Y-115407200D02*
X190928571Y-115454819D01*
X190928571Y-115454819D02*
X191119047Y-115454819D01*
X191119047Y-115454819D02*
X191214285Y-115407200D01*
X191214285Y-115407200D02*
X191261904Y-115359580D01*
X191261904Y-115359580D02*
X191309523Y-115264342D01*
X191309523Y-115264342D02*
X191309523Y-114454819D01*
X192309523Y-115454819D02*
X191738095Y-115454819D01*
X192023809Y-115454819D02*
X192023809Y-114454819D01*
X192023809Y-114454819D02*
X191928571Y-114597676D01*
X191928571Y-114597676D02*
X191833333Y-114692914D01*
X191833333Y-114692914D02*
X191738095Y-114740533D01*
X215333333Y-124954819D02*
X215000000Y-124478628D01*
X214761905Y-124954819D02*
X214761905Y-123954819D01*
X214761905Y-123954819D02*
X215142857Y-123954819D01*
X215142857Y-123954819D02*
X215238095Y-124002438D01*
X215238095Y-124002438D02*
X215285714Y-124050057D01*
X215285714Y-124050057D02*
X215333333Y-124145295D01*
X215333333Y-124145295D02*
X215333333Y-124288152D01*
X215333333Y-124288152D02*
X215285714Y-124383390D01*
X215285714Y-124383390D02*
X215238095Y-124431009D01*
X215238095Y-124431009D02*
X215142857Y-124478628D01*
X215142857Y-124478628D02*
X214761905Y-124478628D01*
X215714286Y-124050057D02*
X215761905Y-124002438D01*
X215761905Y-124002438D02*
X215857143Y-123954819D01*
X215857143Y-123954819D02*
X216095238Y-123954819D01*
X216095238Y-123954819D02*
X216190476Y-124002438D01*
X216190476Y-124002438D02*
X216238095Y-124050057D01*
X216238095Y-124050057D02*
X216285714Y-124145295D01*
X216285714Y-124145295D02*
X216285714Y-124240533D01*
X216285714Y-124240533D02*
X216238095Y-124383390D01*
X216238095Y-124383390D02*
X215666667Y-124954819D01*
X215666667Y-124954819D02*
X216285714Y-124954819D01*
X196833333Y-133859580D02*
X196785714Y-133907200D01*
X196785714Y-133907200D02*
X196642857Y-133954819D01*
X196642857Y-133954819D02*
X196547619Y-133954819D01*
X196547619Y-133954819D02*
X196404762Y-133907200D01*
X196404762Y-133907200D02*
X196309524Y-133811961D01*
X196309524Y-133811961D02*
X196261905Y-133716723D01*
X196261905Y-133716723D02*
X196214286Y-133526247D01*
X196214286Y-133526247D02*
X196214286Y-133383390D01*
X196214286Y-133383390D02*
X196261905Y-133192914D01*
X196261905Y-133192914D02*
X196309524Y-133097676D01*
X196309524Y-133097676D02*
X196404762Y-133002438D01*
X196404762Y-133002438D02*
X196547619Y-132954819D01*
X196547619Y-132954819D02*
X196642857Y-132954819D01*
X196642857Y-132954819D02*
X196785714Y-133002438D01*
X196785714Y-133002438D02*
X196833333Y-133050057D01*
X197214286Y-133050057D02*
X197261905Y-133002438D01*
X197261905Y-133002438D02*
X197357143Y-132954819D01*
X197357143Y-132954819D02*
X197595238Y-132954819D01*
X197595238Y-132954819D02*
X197690476Y-133002438D01*
X197690476Y-133002438D02*
X197738095Y-133050057D01*
X197738095Y-133050057D02*
X197785714Y-133145295D01*
X197785714Y-133145295D02*
X197785714Y-133240533D01*
X197785714Y-133240533D02*
X197738095Y-133383390D01*
X197738095Y-133383390D02*
X197166667Y-133954819D01*
X197166667Y-133954819D02*
X197785714Y-133954819D01*
X173666666Y-103799819D02*
X173666666Y-104514104D01*
X173666666Y-104514104D02*
X173619047Y-104656961D01*
X173619047Y-104656961D02*
X173523809Y-104752200D01*
X173523809Y-104752200D02*
X173380952Y-104799819D01*
X173380952Y-104799819D02*
X173285714Y-104799819D01*
X174666666Y-104799819D02*
X174095238Y-104799819D01*
X174380952Y-104799819D02*
X174380952Y-103799819D01*
X174380952Y-103799819D02*
X174285714Y-103942676D01*
X174285714Y-103942676D02*
X174190476Y-104037914D01*
X174190476Y-104037914D02*
X174095238Y-104085533D01*
%TO.C,D1*%
D11*
X170935000Y-121955000D02*
X170935000Y-125045000D01*
X170935000Y-121955170D02*
G75*
G02*
X176485000Y-123500000I2560000J-1544830D01*
G01*
X176485000Y-123500000D02*
G75*
G02*
X170935000Y-125044830I-2990000J0D01*
G01*
X175995000Y-123500000D02*
G75*
G02*
X170995000Y-123500000I-2500000J0D01*
G01*
X170995000Y-123500000D02*
G75*
G02*
X175995000Y-123500000I2500000J0D01*
G01*
%TO.C,C3*%
X197565000Y-113440000D02*
X202805000Y-113440000D01*
X197565000Y-113777000D02*
X197565000Y-113440000D01*
X197565000Y-116180000D02*
X197565000Y-115843000D01*
X202805000Y-113440000D02*
X202805000Y-113777000D01*
X202805000Y-115843000D02*
X202805000Y-116180000D01*
X202805000Y-116180000D02*
X197565000Y-116180000D01*
%TO.C,R3*%
X179380000Y-123500000D02*
X180150000Y-123500000D01*
X187460000Y-123500000D02*
X186690000Y-123500000D01*
X180150000Y-122130000D02*
X186690000Y-122130000D01*
X186690000Y-124870000D01*
X180150000Y-124870000D01*
X180150000Y-122130000D01*
%TO.C,C1*%
X202195225Y-128525000D02*
X202695225Y-128525000D01*
X202445225Y-128275000D02*
X202445225Y-128775000D01*
X205000000Y-127420000D02*
X205000000Y-128960000D01*
X205000000Y-131040000D02*
X205000000Y-132580000D01*
X205040000Y-127420000D02*
X205040000Y-128960000D01*
X205040000Y-131040000D02*
X205040000Y-132580000D01*
X205080000Y-127421000D02*
X205080000Y-128960000D01*
X205080000Y-131040000D02*
X205080000Y-132579000D01*
X205120000Y-127423000D02*
X205120000Y-128960000D01*
X205120000Y-131040000D02*
X205120000Y-132577000D01*
X205160000Y-127425000D02*
X205160000Y-128960000D01*
X205160000Y-131040000D02*
X205160000Y-132575000D01*
X205200000Y-127428000D02*
X205200000Y-128960000D01*
X205200000Y-131040000D02*
X205200000Y-132572000D01*
X205240000Y-127431000D02*
X205240000Y-128960000D01*
X205240000Y-131040000D02*
X205240000Y-132569000D01*
X205280000Y-127435000D02*
X205280000Y-128960000D01*
X205280000Y-131040000D02*
X205280000Y-132565000D01*
X205320000Y-127440000D02*
X205320000Y-128960000D01*
X205320000Y-131040000D02*
X205320000Y-132560000D01*
X205360000Y-127445000D02*
X205360000Y-128960000D01*
X205360000Y-131040000D02*
X205360000Y-132555000D01*
X205400000Y-127451000D02*
X205400000Y-128960000D01*
X205400000Y-131040000D02*
X205400000Y-132549000D01*
X205440000Y-127457000D02*
X205440000Y-128960000D01*
X205440000Y-131040000D02*
X205440000Y-132543000D01*
X205480000Y-127464000D02*
X205480000Y-128960000D01*
X205480000Y-131040000D02*
X205480000Y-132536000D01*
X205520000Y-127472000D02*
X205520000Y-128960000D01*
X205520000Y-131040000D02*
X205520000Y-132528000D01*
X205560000Y-127481000D02*
X205560000Y-128960000D01*
X205560000Y-131040000D02*
X205560000Y-132519000D01*
X205600000Y-127490000D02*
X205600000Y-128960000D01*
X205600000Y-131040000D02*
X205600000Y-132510000D01*
X205640000Y-127499000D02*
X205640000Y-128960000D01*
X205640000Y-131040000D02*
X205640000Y-132501000D01*
X205680000Y-127510000D02*
X205680000Y-128960000D01*
X205680000Y-131040000D02*
X205680000Y-132490000D01*
X205720000Y-127521000D02*
X205720000Y-128960000D01*
X205720000Y-131040000D02*
X205720000Y-132479000D01*
X205760000Y-127533000D02*
X205760000Y-128960000D01*
X205760000Y-131040000D02*
X205760000Y-132467000D01*
X205800000Y-127545000D02*
X205800000Y-128960000D01*
X205800000Y-131040000D02*
X205800000Y-132455000D01*
X205840000Y-127558000D02*
X205840000Y-128960000D01*
X205840000Y-131040000D02*
X205840000Y-132442000D01*
X205880000Y-127572000D02*
X205880000Y-128960000D01*
X205880000Y-131040000D02*
X205880000Y-132428000D01*
X205920000Y-127587000D02*
X205920000Y-128960000D01*
X205920000Y-131040000D02*
X205920000Y-132413000D01*
X205960000Y-127602000D02*
X205960000Y-128960000D01*
X205960000Y-131040000D02*
X205960000Y-132398000D01*
X206000000Y-127618000D02*
X206000000Y-128960000D01*
X206000000Y-131040000D02*
X206000000Y-132382000D01*
X206040000Y-127635000D02*
X206040000Y-128960000D01*
X206040000Y-131040000D02*
X206040000Y-132365000D01*
X206080000Y-127653000D02*
X206080000Y-128960000D01*
X206080000Y-131040000D02*
X206080000Y-132347000D01*
X206120000Y-127671000D02*
X206120000Y-128960000D01*
X206120000Y-131040000D02*
X206120000Y-132329000D01*
X206160000Y-127691000D02*
X206160000Y-128960000D01*
X206160000Y-131040000D02*
X206160000Y-132309000D01*
X206200000Y-127711000D02*
X206200000Y-128960000D01*
X206200000Y-131040000D02*
X206200000Y-132289000D01*
X206240000Y-127732000D02*
X206240000Y-128960000D01*
X206240000Y-131040000D02*
X206240000Y-132268000D01*
X206280000Y-127754000D02*
X206280000Y-128960000D01*
X206280000Y-131040000D02*
X206280000Y-132246000D01*
X206320000Y-127777000D02*
X206320000Y-128960000D01*
X206320000Y-131040000D02*
X206320000Y-132223000D01*
X206360000Y-127801000D02*
X206360000Y-128960000D01*
X206360000Y-131040000D02*
X206360000Y-132199000D01*
X206400000Y-127825000D02*
X206400000Y-128960000D01*
X206400000Y-131040000D02*
X206400000Y-132175000D01*
X206440000Y-127851000D02*
X206440000Y-128960000D01*
X206440000Y-131040000D02*
X206440000Y-132149000D01*
X206480000Y-127878000D02*
X206480000Y-128960000D01*
X206480000Y-131040000D02*
X206480000Y-132122000D01*
X206520000Y-127906000D02*
X206520000Y-128960000D01*
X206520000Y-131040000D02*
X206520000Y-132094000D01*
X206560000Y-127935000D02*
X206560000Y-128960000D01*
X206560000Y-131040000D02*
X206560000Y-132065000D01*
X206600000Y-127965000D02*
X206600000Y-128960000D01*
X206600000Y-131040000D02*
X206600000Y-132035000D01*
X206640000Y-127997000D02*
X206640000Y-128960000D01*
X206640000Y-131040000D02*
X206640000Y-132003000D01*
X206680000Y-128030000D02*
X206680000Y-128960000D01*
X206680000Y-131040000D02*
X206680000Y-131970000D01*
X206720000Y-128064000D02*
X206720000Y-128960000D01*
X206720000Y-131040000D02*
X206720000Y-131936000D01*
X206760000Y-128099000D02*
X206760000Y-128960000D01*
X206760000Y-131040000D02*
X206760000Y-131901000D01*
X206800000Y-128136000D02*
X206800000Y-128960000D01*
X206800000Y-131040000D02*
X206800000Y-131864000D01*
X206840000Y-128175000D02*
X206840000Y-128960000D01*
X206840000Y-131040000D02*
X206840000Y-131825000D01*
X206880000Y-128215000D02*
X206880000Y-128960000D01*
X206880000Y-131040000D02*
X206880000Y-131785000D01*
X206920000Y-128257000D02*
X206920000Y-128960000D01*
X206920000Y-131040000D02*
X206920000Y-131743000D01*
X206960000Y-128301000D02*
X206960000Y-128960000D01*
X206960000Y-131040000D02*
X206960000Y-131699000D01*
X207000000Y-128348000D02*
X207000000Y-128960000D01*
X207000000Y-131040000D02*
X207000000Y-131652000D01*
X207040000Y-128396000D02*
X207040000Y-131604000D01*
X207080000Y-128447000D02*
X207080000Y-131553000D01*
X207120000Y-128501000D02*
X207120000Y-131499000D01*
X207160000Y-128557000D02*
X207160000Y-131443000D01*
X207200000Y-128617000D02*
X207200000Y-131383000D01*
X207240000Y-128681000D02*
X207240000Y-131319000D01*
X207280000Y-128749000D02*
X207280000Y-131251000D01*
X207320000Y-128823000D02*
X207320000Y-131177000D01*
X207360000Y-128902000D02*
X207360000Y-131098000D01*
X207400000Y-128989000D02*
X207400000Y-131011000D01*
X207440000Y-129086000D02*
X207440000Y-130914000D01*
X207480000Y-129195000D02*
X207480000Y-130805000D01*
X207520000Y-129323000D02*
X207520000Y-130677000D01*
X207560000Y-129483000D02*
X207560000Y-130517000D01*
X207600000Y-129717000D02*
X207600000Y-130283000D01*
X207620000Y-130000000D02*
G75*
G02*
X202380000Y-130000000I-2620000J0D01*
G01*
X202380000Y-130000000D02*
G75*
G02*
X207620000Y-130000000I2620000J0D01*
G01*
%TO.C,R1*%
X202960000Y-121000000D02*
X203730000Y-121000000D01*
X211040000Y-121000000D02*
X210270000Y-121000000D01*
X203730000Y-119630000D02*
X210270000Y-119630000D01*
X210270000Y-122370000D01*
X203730000Y-122370000D01*
X203730000Y-119630000D01*
%TO.C,U1*%
X192540000Y-117170000D02*
X192540000Y-127450000D01*
X192540000Y-127450000D02*
X197840000Y-127450000D01*
X194190000Y-117170000D02*
X192540000Y-117170000D01*
X197840000Y-117170000D02*
X196190000Y-117170000D01*
X197840000Y-127450000D02*
X197840000Y-117170000D01*
X196190000Y-117170000D02*
G75*
G02*
X194190000Y-117170000I-1000000J0D01*
G01*
%TO.C,R2*%
X202880000Y-124500000D02*
X203650000Y-124500000D01*
X210960000Y-124500000D02*
X210190000Y-124500000D01*
X203650000Y-123130000D02*
X210190000Y-123130000D01*
X210190000Y-125870000D01*
X203650000Y-125870000D01*
X203650000Y-123130000D01*
%TO.C,C2*%
X194880000Y-129130000D02*
X200120000Y-129130000D01*
X194880000Y-129467000D02*
X194880000Y-129130000D01*
X194880000Y-131870000D02*
X194880000Y-131533000D01*
X200120000Y-129130000D02*
X200120000Y-129467000D01*
X200120000Y-131533000D02*
X200120000Y-131870000D01*
X200120000Y-131870000D02*
X194880000Y-131870000D01*
%TO.C,J1*%
X172620000Y-105345000D02*
X174000000Y-105345000D01*
X172620000Y-106725000D02*
X172620000Y-105345000D01*
X172620000Y-107995000D02*
X172620000Y-110645000D01*
X172620000Y-107995000D02*
X175380000Y-107995000D01*
X172620000Y-110645000D02*
X175380000Y-110645000D01*
X175380000Y-107995000D02*
X175380000Y-110645000D01*
%TD*%
M02*
